<?xml version="1.0" standalone="no"?>
<!DOCTYPE svg PUBLIC "-//W3C//DTD SVG 20010904//EN"
 "http://www.w3.org/TR/2001/REC-SVG-20010904/DTD/svg10.dtd">
<svg version="1.0" xmlns="http://www.w3.org/2000/svg"
 width="100.000000pt" height="100.000000pt" viewBox="0 0 100.000000 100.000000"
 preserveAspectRatio="xMidYMid meet">
<metadata>
Created by potrace 1.14, written by Peter Selinger 2001-2017
</metadata>
<g transform="translate(0.000000,100.000000) scale(0.100000,-0.100000)"
fill="#000000" stroke="none">
<path d="M450 923 c-18 -7 -40 -31 -56 -59 -10 -18 -215 -416 -308 -599 -50
-98 -54 -123 -29 -165 19 -33 51 -50 93 -50 54 0 61 12 317 514 l35 69 38 -74
c21 -41 65 -123 97 -184 l59 -110 -110 -5 c-118 -6 -146 -16 -165 -57 -15 -32
-14 -59 3 -92 24 -46 50 -51 267 -51 170 0 205 3 229 17 47 28 63 84 37 133
-62 117 -160 303 -204 385 -29 54 -72 137 -96 182 -62 124 -82 145 -142 149
-28 2 -57 1 -65 -3z"/>
</g>
</svg>
